# xmcd
# Track frame offsets:
# 150
# 13911
# 41664
# 69901
# 80839
# 92883
# 122527
# 137707
#
# Disc length: 2010 seconds
# Revision: 0
# Processed by: cddbd v1.5.2PL0 Copyright (c) Steve Scherf et al.
# Submitted via: VisiTrax 2.10.2.252 - For more info visit www.synapsa.com
#
DISCID=6907d808
DTITLE=Roy Buchanan - Second Album
DYEAR=1900
DGENRE=Blues
TTITLE0=Filty Teddy
TTITLE1=After hours
TTITLE2=Five string blues
TTITLE3=Thank you lord
TTITLE4=Treat her right
TTITLE5=I won´t tell you no lies
TTITLE6=Tribute to Elmor James
TTITLE7=She once lived here
EXTD=
EXTT0=
EXTT1=
EXTT2=
EXTT3=
EXTT4=
EXTT5=
EXTT6=
EXTT7=
PLAYORDER=
